<svg xmlns="http://www.w3.org/2000/svg" width="980" height="430" viewBox="0 0 980 430">
  <defs>
    <style>
      .box{fill:#ffffff;stroke:#1f2937;stroke-width:1.5;rx:12;ry:12}.bus{fill:#e0f2fe;stroke:#0369a1;stroke-width:2}.attack{fill:#fee2e2;stroke:#b91c1c;stroke-width:1.5}.evidence{fill:#ecfdf5;stroke:#047857;stroke-width:1.5}.text{font-family:Arial,Helvetica,sans-serif;fill:#111827;font-size:15px}.small{font-size:12px;fill:#374151}.title{font-size:18px;font-weight:700}.arrow{stroke:#334155;stroke-width:2;fill:none;marker-end:url(#m)}
    </style>
    <marker id="m" markerWidth="10" markerHeight="10" refX="7" refY="3" orient="auto"><path d="M0,0 L0,6 L8,3 z" fill="#334155"/></marker>
  </defs>
  <rect x="8" y="8" width="964" height="414" fill="#f8fafc" stroke="#cbd5e1"/>
  <text x="490" y="34" text-anchor="middle" class="text title">Software-Defined CAN Testbed Architecture</text>
  <rect x="52" y="72" width="190" height="78" class="box"/><text x="147" y="102" text-anchor="middle" class="text">Simulated ECUs</text><text x="147" y="125" text-anchor="middle" class="small">engine, body, dashboard</text>
  <rect x="52" y="190" width="190" height="78" class="attack"/><text x="147" y="220" text-anchor="middle" class="text">Attack Modules</text><text x="147" y="243" text-anchor="middle" class="small">spoofing, flooding</text>
  <rect x="330" y="126" width="220" height="96" class="bus"/><text x="440" y="166" text-anchor="middle" class="text title">Virtual CAN Bus</text><text x="440" y="191" text-anchor="middle" class="small">python-can virtual / vcan0</text>
  <rect x="650" y="72" width="210" height="78" class="box"/><text x="755" y="102" text-anchor="middle" class="text">Forensic Logger</text><text x="755" y="125" text-anchor="middle" class="small">raw log + normalized CSV</text>
  <rect x="650" y="190" width="210" height="78" class="evidence"/><text x="755" y="220" text-anchor="middle" class="text">Evidence Package</text><text x="755" y="243" text-anchor="middle" class="small">manifest + SHA-256</text>
  <rect x="330" y="312" width="220" height="58" class="box"/><text x="440" y="337" text-anchor="middle" class="text">Analysis Scripts</text><text x="440" y="358" text-anchor="middle" class="small">plots, tables, triage model</text>
  <rect x="650" y="312" width="210" height="58" class="box"/><text x="755" y="337" text-anchor="middle" class="text">Observer Demo</text><text x="755" y="358" text-anchor="middle" class="small">client-side replay only</text>
  <path d="M242 111 C278 111 294 152 330 152" class="arrow"/><path d="M242 229 C282 229 295 198 330 198" class="arrow"/><path d="M550 152 C590 152 610 111 650 111" class="arrow"/><path d="M755 150 L755 190" class="arrow"/><path d="M650 232 C596 245 536 303 500 312" class="arrow"/><path d="M550 341 L650 341" class="arrow"/>
</svg>
